<?xml version="1.0" standalone="no"?><!DOCTYPE svg PUBLIC "-//W3C//DTD SVG 1.1//EN" "http://www.w3.org/Graphics/SVG/1.1/DTD/svg11.dtd"><svg t="1562493424394" class="icon" viewBox="0 0 1025 1024" version="1.1" xmlns="http://www.w3.org/2000/svg" p-id="2209" xmlns:xlink="http://www.w3.org/1999/xlink" width="48.046875" height="48"><defs><style type="text/css"></style></defs><path d="M450.8 832 119.9 832C89.1 832 64 807 64 776.2L64 119.8C64 89 89.1 64 119.9 64l324 0c12.3 0 24.3 5 32.9 13.7l213.8 214.8c8.7 8.7 13.5 20.3 13.5 32.6l0 47.8c0 17.7 14.3 32 32 32s32-14.3 32-32l0-47.8c0-29.3-11.4-56.9-32.1-77.7L522.1 32.5C501.5 11.9 473 0 443.8 0l-324 0C53.8 0 0 53.7 0 119.8l0 656.5C0 842.3 53.8 896 119.9 896l330.9 0c17.7 0 32-14.3 32-32S468.5 832 450.8 832z" fill="#be1915" p-id="2210"></path><path d="M517.6 281.8 298.2 501.3 181.3 384.3c-12.5-12.5-32.8-12.5-45.3 0s-12.5 32.8 0 45.3l139.6 139.6c6 6 14.1 9.4 22.6 9.4s16.6-3.4 22.6-9.4l242.1-242.1c12.5-12.5 12.5-32.8 0-45.3C550.4 269.4 530.1 269.4 517.6 281.8z" fill="#be1915" p-id="2211"></path><path d="M859.4 781.7c52-31.5 86.7-88.7 86.7-153.9 0-99.3-80.5-179.9-179.9-179.9s-179.9 80.5-179.9 179.9c0 65.8 35.3 123.3 88.1 154.7C579.7 816.7 512 907.4 512 1013.8l0 0c0 5.6 4.5 10.2 10.2 10.2l491.7 0c5.6 0 10.2-4.5 10.2-10.2l0 0C1024 906.5 955.2 815.3 859.4 781.7zM684.3 545.9c21.9-21.9 51-33.9 81.9-33.9s60 12.1 81.9 33.9c21.9 21.9 33.9 51 33.9 81.9s-12.1 60-33.9 81.9c-21.9 21.9-51 33.9-81.9 33.9s-60-12.1-81.9-33.9c-21.9-21.9-33.9-51-33.9-81.9S662.4 567.8 684.3 545.9zM584.1 960c8.6-27.9 24-53.5 45.2-74.7 34.3-34.3 80-53.3 128.6-53.3l20.3 0c48.6 0 94.2 18.9 128.6 53.3 21.2 21.2 36.6 46.8 45.2 74.7L584.1 960z" fill="#be1915" p-id="2212"></path></svg>