<?xml version="1.0" standalone="no"?><!DOCTYPE svg PUBLIC "-//W3C//DTD SVG 1.1//EN" "http://www.w3.org/Graphics/SVG/1.1/DTD/svg11.dtd"><svg t="1562494145174" class="icon" viewBox="0 0 1024 1024" version="1.1" xmlns="http://www.w3.org/2000/svg" p-id="3283" xmlns:xlink="http://www.w3.org/1999/xlink" width="48" height="48"><defs><style type="text/css"></style></defs><path d="M800 409.6v89.6c0 160-134.4 288-294.4 288s-294.4-128-294.4-288V409.6H128v89.6c0 96 38.4 192 108.8 262.4 64 57.6 140.8 96 224 102.4v51.2H313.6v76.8h377.6v-76.8H544v-51.2a362.496 362.496 0 0 0 332.8-364.8V409.6h-76.8z" fill="#be1915" p-id="3284"></path><path d="M505.6 748.8c128 0 236.8-102.4 236.8-230.4V230.4c0-128-108.8-230.4-236.8-230.4S268.8 102.4 268.8 230.4V512c0 128 102.4 236.8 236.8 236.8z m0-115.2c-12.8 0-25.6-12.8-25.6-25.6s12.8-25.6 25.6-25.6 25.6 12.8 25.6 25.6-12.8 25.6-25.6 25.6zM422.4 128h166.4c12.8 0 25.6 12.8 25.6 25.6s-12.8 25.6-25.6 25.6H422.4c-12.8 0-25.6-12.8-25.6-25.6s12.8-25.6 25.6-25.6z m0 89.6h166.4c12.8 0 25.6 12.8 25.6 25.6s-12.8 25.6-25.6 25.6H422.4c-12.8 0-25.6-12.8-25.6-25.6s12.8-25.6 25.6-25.6z m0 89.6h166.4c12.8 0 25.6 12.8 25.6 25.6s-12.8 25.6-25.6 25.6H422.4c-12.8 0-25.6-12.8-25.6-25.6 0-19.2 12.8-25.6 25.6-25.6z" fill="#be1915" p-id="3285"></path></svg>