<?xml version="1.0" standalone="no"?><!DOCTYPE svg PUBLIC "-//W3C//DTD SVG 1.1//EN" "http://www.w3.org/Graphics/SVG/1.1/DTD/svg11.dtd"><svg t="1562496499429" class="icon" viewBox="0 0 1024 1024" version="1.1" xmlns="http://www.w3.org/2000/svg" p-id="26260" xmlns:xlink="http://www.w3.org/1999/xlink" width="48" height="48"><defs><style type="text/css"></style></defs><path d="M855.92 99.67H171.51a72.08 72.08 0 0 0-72.08 72.08v684.39a72.08 72.08 0 0 0 72.08 72.08h684.41A72.08 72.08 0 0 0 928 856.14V171.75a72.08 72.08 0 0 0-72.08-72.08z m10.64 767.11H160.87V163.61a2.51 2.51 0 0 1 2.51-2.51h703.18z" p-id="26261" fill="#be1915"></path><path d="M571.31 339.21h213.91v61.78H571.31zM571.31 599.45h213.91v61.78H571.31zM571.31 701.47h213.91v61.78H571.31zM300.1 454.6l53.78-53.78 53.78 53.78 43.7-43.68-53.79-53.79 53.79-53.8-43.7-43.68-53.78 53.78-53.78-53.78-43.7 43.68 53.79 53.8-53.79 53.79 43.7 43.68zM322.99 772.95h61.78v-76.07h76.07v-61.79h-76.07v-76.07h-61.78v76.07h-76.07v61.79h76.07v76.07z" p-id="26262" fill="#be1915"></path></svg>