<?xml version="1.0" standalone="no"?><!DOCTYPE svg PUBLIC "-//W3C//DTD SVG 1.1//EN" "http://www.w3.org/Graphics/SVG/1.1/DTD/svg11.dtd"><svg t="1562232164124" class="icon" viewBox="0 0 1024 1024" version="1.1" xmlns="http://www.w3.org/2000/svg" p-id="13202" xmlns:xlink="http://www.w3.org/1999/xlink" width="48" height="48"><defs><style type="text/css"></style></defs><path d="M639.317333 665.755152l135.168 0.294787 13.110303 53.651394A363.194182 363.194182 0 0 0 876.606061 480.969697C876.606061 279.598545 713.371152 116.363636 512 116.363636S147.393939 279.598545 147.393939 480.969697a363.209697 363.209697 0 0 0 89.987879 239.833212l16.011637-55.932121 131.289212 0.310303v-31.247515h-14.149819l34.986667-39.796364h7.447273v-28.284121h198.050909v28.284121h12.722424l29.727031 39.796364h-14.149819v31.80606zM265.619394 749.738667A363.287273 363.287273 0 0 0 512 845.575758c94.983758 0 181.480727-36.305455 246.380606-95.821576H265.619394z m53.527273 156.470303C157.556364 832.853333 45.149091 670.021818 45.149091 480.969697 45.180121 223.154424 254.200242 14.149818 512 14.149818 769.815273 14.149818 978.819879 223.138909 978.819879 480.969697c0 193.939394-118.24097 360.230788-286.564849 430.762667a467.48703 467.48703 0 0 0 147.611152-98.459152l25.786182 205.265455H630.24097l-25.320728-24.51394h-186.957575l-23.970909 24.51394H130.048L165.391515 793.662061a468.154182 468.154182 0 0 0 153.755152 112.546909z m0 0l0 0z m200.564363-595.549091l-57.747394 40.122182 20.092122-65.194667v-2.482424l-62.774303-45.149091h75.341575l25.088-75.20194 25.134546 75.20194h75.310545l-62.774303 45.149091v2.482424l20.076606 65.194667-57.747394-40.122182z m165.732849 15.049697l17.578666-37.608728 10.022788 40.106667h37.670788l-30.130424 20.061091c2.513455 12.536242 5.026909 27.585939 7.524848 40.122182-10.038303-10.038303-20.076606-17.563152-30.114909-25.072485-12.567273 7.509333-25.11903 12.536242-35.157333 20.045576l12.567273-35.095273-27.61697-22.574545c12.536242-2.482424 25.088 0 37.655273 0z m-112.996849 105.285818c0-12.536242-2.513455-25.072485-2.513454-37.593212l25.103515 27.570424 35.172848-10.022788-17.578666 30.068364 22.59006 30.099394-37.670788-10.038303-20.092121 32.581818-5.011394-37.593212c-10.038303-5.011394-22.590061-7.524848-35.157333-10.038303l35.157333-15.049697z m-218.453333-105.301333c12.567273 0 25.103515-2.482424 37.670788 0l-27.61697 22.574545 12.567273 35.095273c-10.069333-7.509333-22.605576-12.536242-35.157333-20.045576-10.053818 7.509333-20.092121 15.034182-30.14594 25.072485 2.52897-12.536242 5.026909-27.585939 7.540364-40.122182l-30.14594-20.061091h37.686303l7.509334-40.106667 20.107636 37.593213zM467.006061 431.010909l35.157333 15.049697c-12.567273 2.497939-25.103515 5.011394-35.157333 10.022788l-5.026909 37.593212-22.605576-32.581818-35.141818 10.022788 22.605575-30.083879-17.563151-30.068364 35.141818 10.022788 25.103515-27.570424c0 12.520727-2.513455 25.05697-2.513454 37.593212z" fill="#be1915" p-id="13203"></path></svg>