<?xml version="1.0" standalone="no"?><!DOCTYPE svg PUBLIC "-//W3C//DTD SVG 1.1//EN" "http://www.w3.org/Graphics/SVG/1.1/DTD/svg11.dtd"><svg t="1562767586674" class="icon" viewBox="0 0 1024 1024" version="1.1" xmlns="http://www.w3.org/2000/svg" p-id="1565" width="48" height="48" xmlns:xlink="http://www.w3.org/1999/xlink"><defs><style type="text/css"></style></defs><path d="M736 880H288a64 64 0 0 1-64-64V208a64 64 0 0 1 64-64h309.824l197.488 212.64-0.976 5.76L800 368v448a64 64 0 0 1-64 64z m-128-677.44V320a32 32 0 0 0 32 32h108.08zM768 384h-128a64 64 0 0 1-64-64v-144H288a32 32 0 0 0-32 32v608a32 32 0 0 0 32 32h448a32 32 0 0 0 32-32V384zM336 672h352v32H336v-32z m0-96h352v32H336v-32z m0-96h160v32H336v-32z m0-96h160v32H336v-32z" fill="#ffffff" p-id="1566"></path></svg>