<?xml version="1.0" standalone="no"?><!DOCTYPE svg PUBLIC "-//W3C//DTD SVG 1.1//EN" "http://www.w3.org/Graphics/SVG/1.1/DTD/svg11.dtd"><svg t="1562496335514" class="icon" viewBox="0 0 1024 1024" version="1.1" xmlns="http://www.w3.org/2000/svg" p-id="25370" xmlns:xlink="http://www.w3.org/1999/xlink" width="48" height="48"><defs><style type="text/css"></style></defs><path d="M661.4528 70.77376c-54.26176 0-108.04224 10.9312-160.0512 21.51936-51.6864 10.50624-100.48512 20.44416-149.36064 20.44416-37.96992 0-71.7312-6.21568-103.16288-19.00032-2.9184-1.1776-5.97504-1.63328-9.03168-1.77152-0.37376-0.0256-0.6656-0.21504-1.04448-0.21504-0.32256 0-0.5632 0.15872-0.88064 0.18944a26.73664 26.73664 0 0 0-9.03168 1.82272c-0.512 0.21504-0.96256 0.512-1.47456 0.75264-1.20832 0.53248-2.43712 1.01888-3.56352 1.792-1.1264 0.75264-2.06336 1.7408-3.05664 2.65216-0.39936 0.37376-0.85504 0.67072-1.23392 1.0752-2.08896 2.17088-3.72224 4.6592-4.98176 7.3728-0.27136 0.5888-0.45568 1.1776-0.69632 1.792-1.1008 2.97472-1.87392 6.08256-1.87392 9.32352V922.40384a26.8032 26.8032 0 0 0 26.79296 26.79808 26.8032 26.8032 0 0 0 26.79296-26.79808v-403.75808c27.17184 7.15264 55.65952 10.9568 86.47168 10.9568 54.26176 0 108.04224-10.9312 160.0512-21.51936 51.69152-10.50112 100.48512-20.44416 149.36064-20.44416 37.96992 0 71.7056 6.21568 103.13728 19.00032a26.85952 26.85952 0 0 0 25.05728-2.59584 26.84416 26.84416 0 0 0 11.84256-22.24128V118.528a26.78784 26.78784 0 0 0-16.6912-24.81152c-37.97504-15.4624-78.33088-22.94272-123.37152-22.94272z" fill="#be1915" p-id="25371"></path></svg>