<?xml version="1.0" standalone="no"?><!DOCTYPE svg PUBLIC "-//W3C//DTD SVG 1.1//EN" "http://www.w3.org/Graphics/SVG/1.1/DTD/svg11.dtd"><svg t="1562768265770" class="icon" viewBox="0 0 1024 1024" version="1.1" xmlns="http://www.w3.org/2000/svg" p-id="11309" xmlns:xlink="http://www.w3.org/1999/xlink" width="48" height="48"><defs><style type="text/css"></style></defs><path d="M262 623.11H39.78A27.76 27.76 0 0 0 12 650.89v333.33A27.76 27.76 0 0 0 39.78 1012H262a27.76 27.76 0 0 0 27.78-27.78V650.89A27.76 27.76 0 0 0 262 623.11z m-27.78 333.33H67.56V678.67h166.66zM984.22 289.78H762a27.76 27.76 0 0 0-27.78 27.78v666.66A27.76 27.76 0 0 0 762 1012h222.22a27.76 27.76 0 0 0 27.78-27.78V317.56a27.76 27.76 0 0 0-27.78-27.78z m-27.78 666.66H789.78V345.33h166.66zM623.11 12H400.89a27.76 27.76 0 0 0-27.78 27.78v944.44a27.76 27.76 0 0 0 27.78 27.78h222.22a27.76 27.76 0 0 0 27.78-27.78V39.78A27.76 27.76 0 0 0 623.11 12z m-27.78 944.44H428.67V67.56h166.66z" p-id="11310" fill="#ffffff"></path></svg>