<?xml version="1.0" standalone="no"?><!DOCTYPE svg PUBLIC "-//W3C//DTD SVG 1.1//EN" "http://www.w3.org/Graphics/SVG/1.1/DTD/svg11.dtd"><svg t="1562231368232" class="icon" viewBox="0 0 1024 1024" version="1.1" xmlns="http://www.w3.org/2000/svg" p-id="10241" width="48" height="48" xmlns:xlink="http://www.w3.org/1999/xlink"><defs><style type="text/css"></style></defs><path d="M889.263158 485.052632C889.263158 485.052632 889.263158 431.157895 889.263158 431.157895 889.263158 431.157895 997.052632 431.157895 997.052632 431.157895 997.052632 431.157895 997.052632 485.052632 997.052632 485.052632 997.052632 485.052632 889.263158 485.052632 889.263158 485.052632ZM781.473684 179.658105C781.473684 179.658105 853.342316 107.789474 853.342316 107.789474 853.342316 107.789474 889.263158 143.710316 889.263158 143.710316 889.263158 143.710316 817.394526 215.578947 817.394526 215.578947 817.394526 215.578947 781.473684 179.658105 781.473684 179.658105ZM646.736842 727.578947C646.736842 727.578947 646.736842 862.315789 646.736842 862.315789 646.736842 898.533053 623.912421 943.157895 592.842105 943.157895 592.842105 943.157895 592.842105 970.105263 592.842105 970.105263 592.842105 1001.472 570.017684 1024 538.947368 1024 538.947368 1024 485.052632 1024 485.052632 1024 453.982316 1024 431.157895 1001.472 431.157895 970.105263 431.157895 970.105263 431.157895 943.157895 431.157895 943.157895 400.087579 943.157895 377.263158 898.533053 377.263158 862.315789 377.263158 862.315789 377.263158 727.578947 377.263158 727.578947 275.671579 677.483789 215.578947 572.739368 215.578947 458.105263 215.578947 293.376 348.240842 161.684211 511.407158 161.684211 511.407158 161.684211 511.407158 161.684211 511.407158 161.684211 511.407158 161.684211 512 161.684211 512 161.684211 675.139368 161.684211 807.235368 293.376 808.421053 458.105263 808.421053 572.766316 747.735579 677.483789 646.736842 727.578947ZM485.052632 970.105263C485.052632 970.105263 538.947368 970.105263 538.947368 970.105263 538.947368 970.105263 538.947368 943.157895 538.947368 943.157895 538.947368 943.157895 485.052632 943.157895 485.052632 943.157895 485.052632 943.157895 485.052632 970.105263 485.052632 970.105263ZM431.157895 862.315789C431.157895 888.266105 432.397474 889.263158 458.105263 889.263158 458.105263 889.263158 565.894737 889.263158 565.894737 889.263158 591.575579 889.263158 592.249263 888.266105 592.842105 862.315789 592.842105 862.315789 592.842105 808.421053 592.842105 808.421053 592.842105 808.421053 431.157895 808.421053 431.157895 808.421053 431.157895 808.421053 431.157895 862.315789 431.157895 862.315789ZM512 215.578947C372.143158 215.578947 269.473684 316.901053 269.473684 458.105263 269.473684 560.074105 337.946947 660.210526 431.157895 700.631579 431.157895 700.631579 431.157895 754.526316 431.157895 754.526316 431.157895 754.526316 485.052632 754.526316 485.052632 754.526316 485.052632 754.526316 485.052632 646.736842 485.052632 646.736842 485.052632 646.736842 404.210526 512 404.210526 512 404.210526 492.436211 419.570526 458.105263 458.105263 458.105263 458.105263 458.105263 565.894737 458.105263 565.894737 458.105263 593.246316 458.105263 619.789474 491.843368 619.789474 512 619.789474 512 538.947368 646.736842 538.947368 646.736842 538.947368 646.736842 538.947368 754.526316 538.947368 754.526316 538.947368 754.526316 592.842105 754.526316 592.842105 754.526316 592.842105 754.526316 592.842105 700.631579 592.842105 700.631579 686.08 659.590737 753.933474 560.074105 754.526316 458.105263 754.526316 316.901053 651.856842 215.578947 512 215.578947ZM512 592.842105C512 592.842105 565.894737 512 565.894737 512 565.894737 512 458.105263 512 458.105263 512 458.105263 512 512 592.842105 512 592.842105ZM485.052632 0C485.052632 0 538.947368 0 538.947368 0 538.947368 0 538.947368 107.789474 538.947368 107.789474 538.947368 107.789474 485.052632 107.789474 485.052632 107.789474 485.052632 107.789474 485.052632 0 485.052632 0ZM131.476211 142.632421C131.476211 142.632421 169.579789 104.528842 169.579789 104.528842 169.579789 104.528842 245.786947 180.736 245.786947 180.736 245.786947 180.736 207.683368 218.839579 207.683368 218.839579 207.683368 218.839579 131.476211 142.632421 131.476211 142.632421ZM134.736842 485.052632C134.736842 485.052632 26.947368 485.052632 26.947368 485.052632 26.947368 485.052632 26.947368 431.157895 26.947368 431.157895 26.947368 431.157895 134.736842 431.157895 134.736842 431.157895 134.736842 431.157895 134.736842 485.052632 134.736842 485.052632Z" p-id="10242"></path></svg>