<?xml version="1.0" standalone="no"?><!DOCTYPE svg PUBLIC "-//W3C//DTD SVG 1.1//EN" "http://www.w3.org/Graphics/SVG/1.1/DTD/svg11.dtd"><svg t="1562493836761" class="icon" viewBox="0 0 1024 1024" version="1.1" xmlns="http://www.w3.org/2000/svg" p-id="3820" xmlns:xlink="http://www.w3.org/1999/xlink" width="48" height="48"><defs><style type="text/css"></style></defs><path d="M377.6 972.8H70.4c-6.4 0-12.8-6.4-12.8-19.2V70.4c0-6.4 6.4-19.2 12.8-19.2h812.8c6.4 0 12.8 12.8 12.8 19.2v371.2c0 12.8 12.8 25.6 25.6 25.6s25.6-12.8 25.6-25.6V70.4c0-38.4-32-70.4-64-70.4H70.4C32 0 6.4 32 6.4 70.4v883.2c0 38.4 32 70.4 64 70.4h307.2c12.8 0 25.6-12.8 25.6-25.6 0-19.2-12.8-25.6-25.6-25.6zM992 640l-32-32c-32-32-89.6-32-121.6 0l-243.2 243.2c-12.8 12.8-19.2 25.6-19.2 44.8v83.2c0 25.6 19.2 44.8 44.8 44.8H704c19.2 0 32-6.4 44.8-19.2l243.2-243.2c38.4-32 38.4-89.6 0-121.6z m-268.8 332.8c-6.4 6.4-6.4 6.4-12.8 6.4H627.2V896c0-6.4 0-12.8 6.4-12.8l204.8-204.8 89.6 89.6-204.8 204.8z m243.2-243.2l-12.8 12.8-89.6-89.6 12.8-12.8c6.4-6.4 19.2-12.8 32-12.8s19.2 6.4 32 12.8l32 32c6.4 12.8 6.4 44.8-6.4 57.6z" p-id="3821" fill="#be1915"></path><path d="M409.6 665.6c-12.8 0-25.6 6.4-32 12.8-6.4 6.4-12.8 19.2-12.8 32s6.4 25.6 12.8 32c6.4 6.4 19.2 12.8 32 12.8s25.6-6.4 32-12.8c6.4-6.4 12.8-19.2 12.8-32s-6.4-25.6-12.8-32c-6.4-6.4-19.2-12.8-32-12.8zM422.4 204.8c-51.2 0-96 19.2-128 51.2s-44.8 70.4-44.8 128h64c0-38.4 6.4-64 25.6-89.6 12.8-25.6 38.4-38.4 76.8-38.4 32 0 57.6 6.4 76.8 25.6 19.2 19.2 25.6 38.4 25.6 70.4 0 19.2-6.4 38.4-19.2 57.6l-32 32c-44.8 38.4-70.4 64-76.8 89.6-6.4 19.2-12.8 38.4-12.8 64v19.2h64v-19.2c0-19.2 6.4-38.4 12.8-57.6 6.4-12.8 19.2-25.6 38.4-38.4 32-32 57.6-51.2 64-57.6 12.8-25.6 25.6-57.6 25.6-89.6 0-44.8-12.8-83.2-44.8-108.8-25.6-25.6-70.4-38.4-115.2-38.4z" p-id="3822" fill="#be1915"></path></svg>