<?xml version="1.0" standalone="no"?><!DOCTYPE svg PUBLIC "-//W3C//DTD SVG 1.1//EN" "http://www.w3.org/Graphics/SVG/1.1/DTD/svg11.dtd"><svg t="1562494536505" class="icon" viewBox="0 0 1024 1024" version="1.1" xmlns="http://www.w3.org/2000/svg" p-id="6063" xmlns:xlink="http://www.w3.org/1999/xlink" width="48" height="48"><defs><style type="text/css"></style></defs><path d="M125.086072 106.015902l71.389304 540.961272c239.089156-251.704568 563.9012 145.719624 802.974876-105.984944C975.643499 360.646008 951.852224 180.315264 928.029991 0 688.956314 251.735526 364.175227-145.735103 125.086072 106.015902m812.742147 90.629743c-55.972186 52.303655-116.355897 71.389304-179.015026 73.184872L736.631738 101.743689c62.674608-1.795568 123.02736-20.881217 179.015026-73.184872l22.181455 168.086828m-587.444811 7.84787l22.243372 168.628594c-65.321523 0.495329-128.259274 18.946337-186.460441 73.324183-7.398978-56.188893-14.828914-112.393264-22.25885-168.628594 58.201167-54.362367 121.154397-72.813375 186.475919-73.324183m23.203072 175.810866c65.894247-0.47985 134.187744 17.321039 202.512199 34.982616 7.259667 54.919612 14.503855 109.870182 21.732563 164.774314-68.278018-17.646098-136.586994-35.446987-202.512199-34.951658l-21.732563-164.805272m403.956344 61.823261c-64.470176 1.099011-131.308643-15.69574-198.209027-32.939384-7.414457-56.188893-14.859872-112.424222-22.258851-168.628594 66.915863 17.274602 133.738852 34.038395 198.209028 32.923905 7.398978 56.204372 14.844393 112.45518 22.25885 168.644073M552.415757 235.884996c-68.308976-17.646098-136.617952-35.462466-202.512199-34.982617L327.737582 32.831031c65.894247-0.495329 134.203223 17.321039 202.512199 34.982616 7.36802 56.018623 14.766998 112.083684 22.165976 168.071349m251.828401 378.137316l-21.748043-164.805273c62.659129-1.795568 123.02736-20.865738 179.015026-73.184872l21.748042 164.789794c-55.972186 52.303655-116.355897 71.389304-179.015025 73.200351M215.839647 1000.502827a16.051758 16.051758 0 0 1-13.729903 18.017595l-39.688243 5.340267a16.0208 16.0208 0 0 1-18.002116-13.729903L24.689059 121.262751A16.0208 16.0208 0 0 1 38.418962 103.245155l39.688242-5.324787a16.051758 16.051758 0 0 1 18.033075 13.745382l119.699368 888.837077z" fill="#be1915" p-id="6064"></path></svg>