<?xml version="1.0" standalone="no"?><!DOCTYPE svg PUBLIC "-//W3C//DTD SVG 1.1//EN" "http://www.w3.org/Graphics/SVG/1.1/DTD/svg11.dtd"><svg t="1562232201056" class="icon" viewBox="0 0 1024 1024" version="1.1" xmlns="http://www.w3.org/2000/svg" p-id="13413" xmlns:xlink="http://www.w3.org/1999/xlink" width="48" height="48"><defs><style type="text/css"></style></defs><path d="M926.1 414.4c-4.5-14-16.7-24.2-31.2-26.3l-239.8-34.8-107.2-217.4c-6.5-13.2-19.9-21.6-34.7-21.6-14.7 0-28.2 8.4-34.7 21.6L371.3 353.2 131.5 388c-14.6 2.1-26.7 12.3-31.2 26.3s-0.7 29.4 9.8 39.6L283.6 623l-41 238.8c-2.5 14.5 3.5 29.2 15.4 37.8 11.9 8.7 27.7 9.8 40.7 2.9L513.2 790l214.5 112.8c5.6 3 11.8 4.4 18 4.4 8 0 16-2.5 22.7-7.4 11.9-8.7 17.9-23.3 15.4-37.8l-41-238.8L916.3 454c10.6-10.3 14.3-25.6 9.8-39.6z" fill="#be1915" p-id="13414"></path></svg>