<?xml version="1.0" standalone="no"?><!DOCTYPE svg PUBLIC "-//W3C//DTD SVG 1.1//EN" "http://www.w3.org/Graphics/SVG/1.1/DTD/svg11.dtd"><svg t="1562768985447" class="icon" viewBox="0 0 1024 1024" version="1.1" xmlns="http://www.w3.org/2000/svg" p-id="11915" xmlns:xlink="http://www.w3.org/1999/xlink" width="48" height="48"><defs><style type="text/css"></style></defs><path d="M932 292.8 669.2 28.4C651.2 10.2 626.6 0 600.9 0L172 0C112.4 0 64 48.4 64 108l0 808c0 59.7 48.4 108 108 108l680 0c59.7 0 108-48.4 108-108L960 360.7C960 335.3 949.9 310.9 932 292.8zM896 916c0 24.3-19.7 44-44 44L172 960c-24.3 0-44-19.7-44-44L128 108c0-24.3 19.7-44 44-44l428.9 0c8.5 0 16.9 3.5 22.9 9.5l262.8 264.4c6.1 6.1 9.4 14.2 9.4 22.8L896 916z" p-id="11916" fill="#ffffff"></path><path d="M709.5 398.7 418.2 690 259.8 531.6c-12.5-12.5-32.8-12.5-45.3 0-12.5 12.5-12.5 32.8 0 45.3l181 181c6 6 14.1 9.4 22.6 9.4s16.6-3.4 22.6-9.4l314-314c12.5-12.5 12.5-32.8 0-45.3C742.3 386.2 722 386.2 709.5 398.7z" p-id="11917" fill="#ffffff"></path></svg>