<?xml version="1.0" standalone="no"?><!DOCTYPE svg PUBLIC "-//W3C//DTD SVG 1.1//EN" "http://www.w3.org/Graphics/SVG/1.1/DTD/svg11.dtd"><svg t="1562495892518" class="icon" viewBox="0 0 1024 1024" version="1.1" xmlns="http://www.w3.org/2000/svg" p-id="24538" xmlns:xlink="http://www.w3.org/1999/xlink" width="48" height="48"><defs><style type="text/css"></style></defs><path d="M626.708 683.5c-58.941 30.627-67.604 61.49-69.416 61.777-6.36 4.199-23.716 2.683-22.221 2.448-25.641-33.66-82.688-38.032-82.688-38.032-22.405 59.403 5.314 108.084 5.314 108.084 47.248-5.407 80.927-47.401 81.541-46.06 16.743-2.621 21.904-3.205 22.088-2.089 53.013 31.273 88.535 25.088 88.535 25.088 6.36-23.173 3.656-48.742 3.615-49.838-4.055-36.915-26.768-61.378-26.768-61.378zM465.091 428.78a67.246 67.246 0 0 0-13.538-40.879 29.923 29.923 0 0 1 2.407 11.766c0 16.067-11.807 29.113-26.44 29.113-14.551 0-26.42-13.036-26.42-29.113 0-15.964 11.859-29 26.42-29 1.516 0 3.072 0.226 4.536 0.461a54.22 54.22 0 0 0-25.026-6.287c-32.103 0-58.194 28.651-58.194 63.939 0 35.235 26.091 63.825 58.194 63.825 32.02 0 58.06-28.59 58.06-63.825z m188.907-29.113c0 16.067-11.776 29.113-26.44 29.113-14.53 0-26.419-13.036-26.419-29.113 0-15.964 11.889-29 26.42-29 1.546 0 3.071 0.226 4.536 0.461a53.955 53.955 0 0 0-25.078-6.287c-32.102 0-58.143 28.651-58.143 63.939 0 35.235 26.04 63.825 58.143 63.825s58.173-28.59 58.173-63.825a67.246 67.246 0 0 0-13.537-40.879c1.464 3.564 2.345 7.517 2.345 11.766zM631.05 562.555c-12.503 19.681-50.288 68.485-104.53 76.81-55.419 8.5-72.745-5.355-111.902-41 0 0-4.352-3.493-0.297 3.255 98.048 143.494 218.716-13.035 216.73-39.065z m-231.3 1.69c-6.606 0-11.92 5.406-11.92 11.99 0 0.584 0.082 1.168 0.133 1.752a11.91 11.91 0 0 0 23.685-1.751 11.97 11.97 0 0 0-11.899-11.992z m236.81-9.677c6.061 0 10.997-4.537 11.827-10.373 0.081-0.584 0.081-1.158 0.081-1.629 0-6.635-5.314-12.052-11.909-12.052s-11.878 5.407-11.878 12.052a11.93 11.93 0 0 0 11.878 12.002z" p-id="24539" fill="#be1915"></path><path d="M937.78 531.395c-12.657-24.105-36.506-39.127-62.168-39.127a68.987 68.987 0 0 0-29.942 6.993l-107.192-35.184C732.97 301.373 731.69 90.573 731.69 88.36l-0.317-42.506-85.228 156.866 19.087-185.415-25.661 47.278c-21.013 38.799-83.026 142.1-116.87 154.552a262.287 262.287 0 0 1-90.644 16.128c-122.183 0.061-216.248-84.49-217.241-85.36l-29.83-27.198 12.74 40.182c0.829 2.683 67.03 196.597 89.548 333.68-64.287-56.842-86.805-90.788-97.485-100.157-24.944-21.903-47.964-19.569-47.964-19.569-36.905 4.076-65.219 37.683-65.219 78.439 0 43.5 32.646 78.91 72.745 78.91 30.987 0.93 50.238-16.835 54.272-19.099 4.035-2.222 107.285 126.014 107.285 126.014-1.628 196.127-64.338 346.49-65.034 347.658l-9.585 17.93h260.178l54.722-107.612 28.6 92.416 231.701-5.191-4.106-15.023c-0.625-2.16-58.87-214.18-61-358.369-1.495-15.032-2.826-34.59-4.085-58.347l60.067 19.742a83.22 83.22 0 0 0 9.452 37.038c12.708 24.157 36.536 39.189 62.28 39.189a68.086 68.086 0 0 0 36.638-10.783c16.784-10.65 28.846-27.77 33.997-48.21a84.306 84.306 0 0 0-6.953-60.15z m-13.835 53.862c-3.615 14.377-12.134 26.44-24.013 33.946a47.872 47.872 0 0 1-25.825 7.68c-18.033 0-34.693-10.589-43.561-27.362a58.85 58.85 0 0 1-6.38-32.665l0.932-9.851-106.014-34.816 0.798 16.886c1.546 31.682 3.205 57.415 4.987 75.243 1.792 125.9 44.309 297.339 57.795 348.815l-187.536 4.189-39.096-126.24-72.243 141.907h-210.8c18.8-42.906 61.45-160.656 57.63-337.285l-0.666-28.816s-1.659 2.212-135.137-141.158c-6.39 22.477-24.863 35.41-47.401 35.41-2.642 0-5.212-0.348-7.741-0.82-0.267-0.122-0.564-0.122-0.83-0.122a40.08 40.08 0 0 1-7.455-2.212c-0.747-0.225-1.546-0.46-2.242-0.758-18.77-8.09-32.133-27.945-32.133-51.466 0-28.478 19.742-51.774 44.953-54.743 1.762-0.287 36.035-0.123 52.562 35.81 35.758 30.504 116.388 110.182 116.388 110.182s16.876-83.037-82.022-357.09c38.297 26.962 112.65 69.059 203.161 69.059 33.25 0 66.1-5.816 97.454-17.347 32.103-11.755 75.869-76.052 103.414-121.241L613.49 309.187l96.921-178.31c0.686 71.865 2.56 221.993 6.81 342.651l0.287 8.5 130.19 42.803 3.923-2.386c23.45-13.394 54.59-3.717 67.492 20.848a59.3 59.3 0 0 1 4.833 41.964z" p-id="24540" fill="#be1915"></path></svg>